<svg width="25" height="25" viewBox="0 0 25 25" fill="none" xmlns="http://www.w3.org/2000/svg">
<path d="M6.52408 4.85217C8.0433 3.36339 10.0887 2.53428 12.2158 2.54502C14.3429 2.55577 16.3798 3.40549 17.8839 4.90954C19.388 6.41359 20.2378 8.45044 20.2485 10.5775C20.2593 12.7045 19.4301 14.7498 17.9413 16.269L13.6741 20.536C13.2918 20.9182 12.7733 21.1329 12.2327 21.1329C11.6921 21.1329 11.1736 20.9182 10.7913 20.536L6.52408 16.269C5.01016 14.755 4.15967 12.7016 4.15967 10.5606C4.15967 8.41954 5.01016 6.36618 6.52408 4.85217Z" stroke="black" stroke-width="1.5" stroke-linejoin="round"/>
<path d="M12.2327 13.6186C13.9217 13.6186 15.2909 12.2494 15.2909 10.5605C15.2909 8.87159 13.9217 7.50244 12.2327 7.50244C10.5438 7.50244 9.17456 8.87159 9.17456 10.5605C9.17456 12.2494 10.5438 13.6186 12.2327 13.6186Z" stroke="black" stroke-width="1.5" stroke-linecap="round" stroke-linejoin="round"/>
</svg>
