<svg width="19" height="19" viewBox="0 0 19 19" fill="none" xmlns="http://www.w3.org/2000/svg">
<path d="M9.37584 0C6.82978 0 6.51019 0.0111563 5.51025 0.056625C4.51219 0.102375 3.83091 0.260344 3.23484 0.492188C2.61816 0.731625 2.09513 1.05197 1.57406 1.57322C1.05253 2.09437 0.732188 2.61741 0.492 3.23381C0.2595 3.83006 0.101344 4.51162 0.0564374 5.50922C0.0117187 6.50925 0 6.82894 0 9.37509C0 11.9213 0.01125 12.2398 0.056625 13.2397C0.102563 14.2378 0.260531 14.9191 0.492188 15.5152C0.731812 16.1318 1.05216 16.6549 1.57341 17.1759C2.09438 17.6975 2.61741 18.0186 3.23362 18.258C3.83016 18.4898 4.51153 18.6478 5.50941 18.6936C6.50944 18.739 6.82875 18.7502 9.37472 18.7502C11.9211 18.7502 12.2396 18.739 13.2396 18.6936C14.2376 18.6478 14.9197 18.4898 15.5162 18.258C16.1326 18.0186 16.6549 17.6975 17.1757 17.1759C17.6973 16.6549 18.0175 16.1318 18.2578 15.5154C18.4883 14.9191 18.6465 14.2376 18.6934 13.2399C18.7383 12.24 18.75 11.9213 18.75 9.37509C18.75 6.82894 18.7383 6.50944 18.6934 5.50941C18.6465 4.51134 18.4883 3.83016 18.2578 3.23409C18.0175 2.61741 17.6973 2.09437 17.1757 1.57322C16.6543 1.05178 16.1328 0.731437 15.5156 0.492281C14.918 0.260344 14.2363 0.102281 13.2382 0.056625C12.2382 0.0111563 11.9198 0 9.37294 0H9.37584ZM8.53481 1.68947C8.78447 1.68909 9.063 1.68947 9.37584 1.68947C11.8791 1.68947 12.1757 1.69847 13.1642 1.74338C14.0782 1.78519 14.5744 1.93791 14.9048 2.06625C15.3424 2.23612 15.6543 2.43928 15.9822 2.7675C16.3103 3.09562 16.5134 3.40809 16.6838 3.84562C16.8121 4.17562 16.965 4.67175 17.0066 5.58581C17.0515 6.57413 17.0613 6.87094 17.0613 9.37294C17.0613 11.8749 17.0515 12.1718 17.0066 13.1601C16.9648 14.0741 16.8121 14.5702 16.6838 14.9003C16.5139 15.3379 16.3103 15.6494 15.9822 15.9773C15.6541 16.3055 15.3426 16.5085 14.9048 16.6785C14.5747 16.8074 14.0782 16.9598 13.1642 17.0016C12.1759 17.0465 11.8791 17.0562 9.37584 17.0562C6.87253 17.0562 6.57581 17.0465 5.58759 17.0016C4.67353 16.9594 4.17741 16.8067 3.84666 16.6783C3.40922 16.5083 3.09666 16.3053 2.76853 15.9772C2.44041 15.649 2.23734 15.3373 2.067 14.8996C1.93866 14.5695 1.78575 14.0734 1.74413 13.1593C1.69922 12.171 1.69022 11.8742 1.69022 9.37059C1.69022 6.867 1.69922 6.57178 1.74413 5.58347C1.78594 4.66941 1.93866 4.17328 2.067 3.84281C2.23697 3.40528 2.44041 3.09281 2.76863 2.76469C3.09684 2.43656 3.40922 2.23341 3.84675 2.06316C4.17722 1.93425 4.67353 1.78191 5.58759 1.73991C6.45244 1.70081 6.78759 1.68909 8.53481 1.68712V1.68947ZM14.3802 3.24609C13.7591 3.24609 13.2552 3.74953 13.2552 4.37072C13.2552 4.99181 13.7591 5.49572 14.3802 5.49572C15.0013 5.49572 15.5052 4.99181 15.5052 4.37072C15.5052 3.74963 15.0013 3.24572 14.3802 3.24572V3.24609ZM9.37584 4.56056C6.71709 4.56056 4.56141 6.71625 4.56141 9.37509C4.56141 12.0339 6.71709 14.1886 9.37584 14.1886C12.0347 14.1886 14.1896 12.0339 14.1896 9.37509C14.1896 6.71634 12.0345 4.56056 9.37566 4.56056H9.37584ZM9.37584 6.25003C11.1017 6.25003 12.5009 7.64906 12.5009 9.37509C12.5009 11.1009 11.1017 12.5002 9.37584 12.5002C7.65 12.5002 6.25088 11.1009 6.25088 9.37509C6.25088 7.64906 7.64991 6.25003 9.37584 6.25003Z" fill="white"/>
</svg>
