<svg width="77" height="77" viewBox="0 0 77 77" fill="none" xmlns="http://www.w3.org/2000/svg">
<path d="M3.2085 18.5536C3.2085 16.9258 3.85513 15.3647 5.00614 14.2137C6.15715 13.0626 7.71826 12.416 9.34604 12.416H67.6543C69.2821 12.416 70.8432 13.0626 71.9942 14.2137C73.1452 15.3647 73.7918 16.9258 73.7918 18.5536V58.446C73.7918 60.0737 73.1452 61.6349 71.9942 62.7859C70.8432 63.9369 69.2821 64.5835 67.6543 64.5835H9.34604C7.71826 64.5835 6.15715 63.9369 5.00614 62.7859C3.85513 61.6349 3.2085 60.0737 3.2085 58.446V18.5536Z" fill="#66E1FF"/>
<path d="M9.34604 12.416C7.71826 12.416 6.15715 13.0626 5.00614 14.2137C3.85513 15.3647 3.2085 16.9258 3.2085 18.5536V58.446C3.2085 60.0437 3.83412 61.5773 4.95062 62.7227L55.2605 12.416H9.34604Z" fill="#C2F3FF"/>
<path d="M3.2085 18.5536C3.2085 16.9258 3.85513 15.3647 5.00614 14.2137C6.15715 13.0626 7.71826 12.416 9.34604 12.416H67.6543C69.2821 12.416 70.8432 13.0626 71.9942 14.2137C73.1452 15.3647 73.7918 16.9258 73.7918 18.5536V58.446C73.7918 60.0738 73.1452 61.6349 71.9942 62.7859C70.8432 63.9369 69.2821 64.5835 67.6543 64.5835H9.34604C7.71826 64.5835 6.15715 63.9369 5.00614 62.7859C3.85513 61.6349 3.2085 60.0738 3.2085 58.446V18.5536Z" stroke="#191919" stroke-linecap="round" stroke-linejoin="round"/>
<path d="M16.876 32.3591H20.8062L21.9163 43.4086C21.9479 43.7062 22.0757 43.9854 22.2802 44.2038C22.4847 44.4222 22.7549 44.5681 23.0497 44.6192C23.3446 44.6704 23.6481 44.624 23.9142 44.4872C24.1803 44.3504 24.3946 44.1305 24.5246 43.861L30.2162 32.0223M35.7666 32.2693L33.2834 44.7369M47.1787 32.1249C47.1787 32.1249 42.9597 31.0213 41.5224 33.4211C40.0786 35.8209 42.3373 37.3513 43.8228 38.2657C45.3082 39.1736 46.9413 40.5661 46.5081 42.1959C46.075 43.8257 44.2559 46.2255 39.4498 44.5444M50.7784 44.7337L56.547 33.1035C56.6781 32.8425 56.8909 32.6314 57.1529 32.5023C57.4149 32.3733 57.712 32.3333 57.9988 32.3885C58.2856 32.4437 58.5466 32.591 58.742 32.8081C58.9375 33.0252 59.0567 33.3001 59.0816 33.5911L60.0024 44.5412M52.6008 41.0473H59.7425" stroke="#191919" stroke-linecap="round" stroke-linejoin="round"/>
</svg>
